<svg id="shiro-svg" width="300" height="300" viewBox="0 0 400 400" xmlns="http://www.w3.org/2000/svg" class="z-10 relative transition-all duration-500">
                <!-- Group for the whole character -->
                <g id="shiro-lines" stroke="black" stroke-width="10" fill="none" class="sketch-stroke">
                    
                    <!-- Left Ear -->
                    <path d="M 70 90 Q 40 70 30 100 Q 25 120 70 125" fill="white" class="fill-area"></path>
                    <!-- Right Ear -->
                    <path d="M 330 110 Q 370 90 390 120 Q 400 150 370 150 Q 350 150 330 130" fill="white" class="fill-area"></path>
                    <!-- Tail -->
                    <path d="M 280 340 Q 310 320 330 330 Q 350 340 340 360 Q 320 380 300 370 Q 290 360 270 360" fill="white" class="fill-area"></path>
                    <!-- Body -->
                    <path d="M 140 260 Q 130 300 120 350 Q 110 380 150 380 L 170 380 Q 175 340 200 340 Q 225 340 230 380 L 250 380 Q 290 380 280 340 Q 270 300 260 260" fill="white" stroke-linejoin="round" class="fill-area"></path>
                    <!-- Head -->
                    <path d="M 80 120 Q 70 80 100 60 Q 130 40 160 50 Q 190 30 220 50 Q 260 40 290 70 Q 330 90 320 140 Q 340 180 310 210 Q 330 250 280 260 Q 240 280 200 270 Q 150 280 110 250 Q 70 230 80 180 Q 60 140 80 120" fill="white" class="fill-area"></path>
                    <!-- Eyebrows -->
                    <path d="M 100 100 Q 120 70 150 100" fill="none"></path>
                    <path d="M 250 110 Q 280 90 310 120" fill="none"></path>
                    <!-- Eyes -->
                    <circle cx="130" cy="140" r="7" fill="black" stroke="none" class="eye-fill"></circle>
                    <circle cx="270" cy="150" r="7" fill="black" stroke="none" class="eye-fill"></circle>
                    <!-- Mouth -->
                    <path d="M 170 180 Q 190 170 210 180 Q 230 190 220 185 Q 200 195 170 180" fill="black" class="mouth-fill"></path>
                    <!-- Blush -->
                    <g id="blush-lines" stroke="#ff8888" stroke-width="3">
                        <line x1="280" y1="190" x2="270" y2="210"></line>
                        <line x1="295" y1="195" x2="285" y2="215"></line>
                        <line x1="310" y1="200" x2="300" y2="220"></line>
                    </g>
                </g>
            </svg>